<svg width="99" height="30" viewBox="0 0 99 30" fill="none" xmlns="http://www.w3.org/2000/svg">
<rect width="99" height="30" fill="#131313"/>
<g clip-path="url(#clip0_16_53)">
<rect width="1440" height="9596" transform="translate(-405 -1224)" fill="white"/>
<g filter="url(#filter0_f_16_53)">
<rect x="-1158" y="-943" width="1362.54" height="766.436" rx="383.218" fill="#51B4FA"/>
</g>
<g filter="url(#filter1_f_16_53)">
<rect x="-376" y="-695" width="751.025" height="422.451" rx="211.225" fill="#854AEB"/>
</g>
<rect x="-270" y="-575" width="1170" height="773" rx="30" fill="white"/>
<path d="M57.2114 1.01393V3.28721C57.2176 3.43966 57.2829 3.5836 57.3933 3.68811C57.5037 3.79262 57.6505 3.84936 57.802 3.84614H63.0479L57.0036 12.5524C56.6216 13.112 56.6216 13.7411 56.6216 14.0907V16.3982C56.6216 16.7479 57.0034 17.0974 57.3508 16.9226C60.755 15.0695 64.8887 15.2443 67.9803 16.8876C68.3621 17.0972 68.7095 16.7129 68.7095 16.3632V13.9506C68.6747 13.636 68.5706 13.2863 68.1885 13.0765C66.4519 12.0978 64.4022 11.8181 62.4569 11.8531L67.6673 4.37061C68.1537 3.67104 68.4316 3.25168 68.4316 2.937V1.01393C68.4256 0.86139 68.3603 0.717315 68.2499 0.612691C68.1394 0.508067 67.9926 0.451252 67.841 0.454465H57.7673C57.6932 0.450494 57.6192 0.462245 57.55 0.488956C57.4807 0.515667 57.4179 0.556738 57.3655 0.609503C57.313 0.662268 57.2722 0.725545 57.2457 0.795221C57.2192 0.864897 57.2075 0.939415 57.2114 1.01393Z" fill="#C4C4C4"/>
<path d="M17.4377 17.3774H20.4946C20.6446 17.3828 20.7914 17.3323 20.9068 17.2356C21.0221 17.1388 21.098 17.0026 21.1198 16.8531V8.46143C21.1198 8.40663 21.1198 8.35126 21.1197 8.29539C21.1177 6.46158 21.1151 4.09082 23.2388 4.09082C25.1778 4.09082 25.1458 6.21665 25.1201 7.91632C25.1173 8.10439 25.1145 8.28725 25.1145 8.46143V16.8531C25.1145 17.1329 25.3577 17.3775 25.6704 17.4125H28.7272C28.8788 17.4157 29.0256 17.3589 29.136 17.2543C29.2465 17.1497 29.3117 17.0056 29.3177 16.8531V8.46143C29.3177 8.38132 29.3174 8.29795 29.3171 8.21197C29.3143 7.32228 29.3105 6.15281 29.5955 5.41954C29.7437 5.04667 29.9969 4.72554 30.324 4.49567C30.6511 4.26581 31.0379 4.13725 31.4366 4.12582C32.3399 4.12582 32.9999 4.4405 33.243 5.48943C33.352 5.98331 33.3327 7.12316 33.3193 7.91205C33.3156 8.12844 33.3124 8.31842 33.3124 8.46143V16.8531C33.3124 17.1329 33.5556 17.3775 33.8682 17.4125H36.8907C37.0423 17.4157 37.1891 17.3589 37.2996 17.2543C37.41 17.1497 37.4752 17.0056 37.4812 16.8531V6.85314C37.4812 6.59834 37.4858 6.3389 37.4904 6.07746C37.517 4.581 37.5447 3.01919 36.717 1.88818C35.8485 0.664356 34.459 0.139893 33.1737 0.139893C31.3672 0.139893 29.6649 1.08393 28.9356 3.07689C28.1018 1.08393 26.8861 0.139893 24.9756 0.139893C23.0998 0.139893 21.6753 1.08393 20.9461 3.07689H20.8766V1.01393C20.8654 0.872574 20.8022 0.740503 20.6995 0.64352C20.5967 0.546537 20.4617 0.491607 20.3208 0.489463H17.4724C17.3208 0.486277 17.174 0.543107 17.0636 0.647728C16.9531 0.752349 16.8879 0.896407 16.8819 1.04893V16.853C16.9045 16.9897 16.9712 17.1151 17.0716 17.2099C17.1721 17.3046 17.3007 17.3635 17.4377 17.3774Z" fill="#C4C4C4"/>
<path fill-rule="evenodd" clip-rule="evenodd" d="M84.1326 9.05589C84.1326 4.05593 81.6663 0.139893 77.1157 0.139893C72.6694 0.139893 70.203 3.98593 70.2378 8.916C70.2378 13.8111 72.6694 17.7271 77.1157 17.7271C81.4232 17.7271 84.1326 13.8811 84.1326 9.05589ZM74.7189 8.42653C74.7189 6.50346 74.8578 3.39157 77.1157 3.39157C78.0884 3.39157 78.7831 3.81103 79.1305 4.92996C79.5126 6.18878 79.5821 7.79707 79.5821 9.12578C79.5821 11.1537 79.4432 14.4754 77.0811 14.4754C74.7174 14.4754 74.7184 10.4634 74.7189 8.50789L74.7189 8.42653Z" fill="#C4C4C4"/>
<path d="M86.9463 17.3774H90.0031C90.1569 17.376 90.3049 17.3189 90.4199 17.216C90.5348 17.1132 90.6088 16.9719 90.6283 16.8183V8.28643C90.6283 7.2025 90.6976 6.25815 91.1144 5.27943C91.4618 4.51007 92.1567 4.02071 92.886 4.02071C94.8347 4.02071 94.815 6.15004 94.7993 7.85204C94.7979 8.00074 94.7965 8.14617 94.7965 8.28664V16.8878C94.8313 17.1324 95.0745 17.3421 95.3523 17.3771H98.4094C98.5505 17.3834 98.689 17.3369 98.798 17.2465C98.9071 17.1562 98.979 17.0284 99 16.8878V6.92282C99 5.38432 99 3.25147 98.2011 1.99275C97.3326 0.628931 95.9779 0.139571 94.6232 0.139571C92.5042 0.139571 91.3232 1.1535 90.4547 3.32136H90.3853V0.908823C90.3544 0.782503 90.2834 0.669774 90.1831 0.587738C90.0828 0.505702 89.9586 0.458835 89.8295 0.454251H86.981C86.8363 0.455358 86.6969 0.509031 86.5884 0.605396C86.4799 0.701761 86.4096 0.834333 86.3905 0.978714V16.818C86.3905 17.0977 86.6336 17.3424 86.9463 17.3774Z" fill="#C4C4C4"/>
<path fill-rule="evenodd" clip-rule="evenodd" d="M51.9256 17.4956C52.0564 17.4831 52.18 17.4295 52.279 17.3425L52.2802 17.3424C52.5022 17.1562 52.7854 16.9128 53.088 16.6527C53.6377 16.1802 54.2513 15.6527 54.677 15.3145C54.9201 15.1397 54.8854 14.79 54.677 14.5103C54.6101 14.4134 54.5426 14.3191 54.4757 14.2256C53.9875 13.5429 53.5307 12.9041 53.5307 11.6432V6.85304C53.5307 6.69295 53.5316 6.53374 53.5324 6.37556C53.5425 4.53042 53.5517 2.82657 52.176 1.53839C50.9949 0.384572 49.0497 0 47.556 0C44.6381 0 41.4076 1.08393 40.7129 4.72029C40.6434 5.10496 40.9214 5.27975 41.1645 5.34964L44.1171 5.66432C44.3951 5.66432 44.5687 5.38454 44.6381 5.10486C44.8813 3.84604 45.9234 3.25168 47.1045 3.25168C47.7292 3.25168 48.424 3.49636 48.8061 4.05582C49.2053 4.61225 49.1973 5.36019 49.19 6.03334C49.1891 6.12157 49.1882 6.20851 49.1882 6.29357V6.67814C48.9001 6.71226 48.5974 6.74452 48.2852 6.77781C46.6774 6.9492 44.8181 7.14739 43.4219 7.76207C41.5108 8.60132 40.1561 10.2796 40.1561 12.797C40.1561 15.9788 42.1708 17.5872 44.7414 17.5872C46.895 17.5872 48.1109 17.0622 49.7782 15.3495C49.8594 15.4669 49.9332 15.5761 50.0031 15.6797C50.4122 16.2852 50.6895 16.6958 51.5498 17.4124C51.6633 17.479 51.7948 17.5081 51.9256 17.4956ZM49.1876 10.0129C49.1875 9.95079 49.1874 9.88821 49.1874 9.82514V9.16132C46.9643 9.16132 44.6369 9.65089 44.6369 12.2732C44.6369 13.6019 45.3316 14.511 46.5126 14.511C47.3811 14.511 48.1454 13.9865 48.6316 13.1124C49.1909 12.0854 49.1894 11.1217 49.1876 10.0129Z" fill="#C4C4C4"/>
<path fill-rule="evenodd" clip-rule="evenodd" d="M11.7695 17.4956C11.9003 17.4831 12.0239 17.4295 12.1229 17.3425L12.1241 17.3424C12.3461 17.1562 12.6293 16.9128 12.9319 16.6527C13.4816 16.1802 14.0952 15.6528 14.5209 15.3145C14.764 15.1397 14.7293 14.79 14.5209 14.5103C14.454 14.4134 14.3865 14.3191 14.3196 14.2256C13.8314 13.5429 13.3746 12.9041 13.3746 11.6432V6.85304C13.3746 6.69296 13.3755 6.53374 13.3763 6.37556C13.3864 4.53042 13.3957 2.82657 12.0199 1.53839C10.8388 0.384572 8.89362 0 7.39992 0C4.48206 0 1.25146 1.08393 0.55677 4.72029C0.487332 5.10496 0.765294 5.27975 1.00838 5.34964L3.96101 5.66432C4.23897 5.66432 4.41262 5.38454 4.48206 5.10486C4.72525 3.84604 5.76734 3.25168 6.94841 3.25168C7.57314 3.25168 8.26794 3.49636 8.65 4.05582C9.04919 4.61225 9.04117 5.36019 9.03395 6.03335C9.033 6.12157 9.03207 6.20852 9.03207 6.29357V6.67814C8.74406 6.71226 8.44134 6.74452 8.12913 6.77781C6.52131 6.9492 4.66202 7.14739 3.26579 7.76207C1.35472 8.60132 0 10.2796 0 12.797C0 15.9788 2.01475 17.5872 4.58531 17.5872C6.73894 17.5872 7.95478 17.0622 9.62213 15.3495C9.70334 15.4669 9.77712 15.5761 9.84706 15.6797C10.2561 16.2852 10.5335 16.6958 11.3937 17.4124C11.5072 17.479 11.6387 17.5081 11.7695 17.4956ZM9.0663 10.0129C9.0662 9.9508 9.0661 9.88822 9.0661 9.82514V9.16132C6.84294 9.16132 4.51556 9.65089 4.51556 12.2732C4.51556 13.6019 5.21025 14.511 6.39133 14.511C7.25977 14.511 8.02412 13.9865 8.51029 13.1124C9.06954 12.0854 9.06803 11.1218 9.0663 10.0129Z" fill="#C4C4C4"/>
<path d="M63.811 20.6991C63.0818 19.7551 58.9478 20.2445 57.1068 20.4893C56.551 20.5592 56.4468 20.0698 56.9679 19.7201C60.2679 17.3774 65.6521 18.0767 66.2774 18.8459C66.9026 19.6152 66.1037 25.0693 63.0116 27.657C62.5254 28.0416 62.0737 27.8318 62.2823 27.3074L62.3187 27.2159C63.0301 25.4273 64.528 21.6611 63.811 20.6991Z" fill="#C4C4C4"/>
<path d="M61.4144 23.4615C55.6827 27.7275 47.3459 30 40.1554 30C30.0816 30 21.0501 26.2588 14.1721 20.0351C13.6511 19.5457 14.1027 18.8813 14.7626 19.2658C22.1616 23.6014 31.2975 26.1889 40.7458 26.1889C47.1027 26.1889 54.1195 24.8603 60.5806 22.0979C61.5529 21.7134 62.3522 22.7623 61.4144 23.4615Z" fill="#C4C4C4"/>
</g>
<defs>
<filter id="filter0_f_16_53" x="-1454.02" y="-1239.02" width="1954.58" height="1358.47" filterUnits="userSpaceOnUse" color-interpolation-filters="sRGB">
<feFlood flood-opacity="0" result="BackgroundImageFix"/>
<feBlend mode="normal" in="SourceGraphic" in2="BackgroundImageFix" result="shape"/>
<feGaussianBlur stdDeviation="148.009" result="effect1_foregroundBlur_16_53"/>
</filter>
<filter id="filter1_f_16_53" x="-672.017" y="-991.017" width="1343.06" height="1014.49" filterUnits="userSpaceOnUse" color-interpolation-filters="sRGB">
<feFlood flood-opacity="0" result="BackgroundImageFix"/>
<feBlend mode="normal" in="SourceGraphic" in2="BackgroundImageFix" result="shape"/>
<feGaussianBlur stdDeviation="148.009" result="effect1_foregroundBlur_16_53"/>
</filter>
<clipPath id="clip0_16_53">
<rect width="1440" height="9596" fill="white" transform="translate(-405 -1224)"/>
</clipPath>
</defs>
</svg>
