<svg width="30" height="30" viewBox="0 0 30 30" fill="none" xmlns="http://www.w3.org/2000/svg">
<rect width="30" height="30" fill="#131313"/>
<g clip-path="url(#clip0_16_53)">
<rect width="1440" height="9596" transform="translate(-242 -775)" fill="white"/>
<g filter="url(#filter0_f_16_53)">
<rect x="-995" y="-494" width="1362.54" height="766.436" rx="383.218" fill="#51B4FA"/>
</g>
<g filter="url(#filter1_f_16_53)">
<rect x="-213" y="-246" width="751.025" height="422.451" rx="211.225" fill="#854AEB"/>
</g>
<rect x="-107" y="-126" width="1170" height="773" rx="30" fill="white"/>
<rect x="-58.5" y="-55.5" width="245" height="224" rx="11.5" stroke="#F2F3F8"/>
<rect x="-29" y="-26" width="88" height="88" rx="44" fill="url(#paint0_linear_16_53)"/>
<path fill-rule="evenodd" clip-rule="evenodd" d="M19.6829 4.79828C20.7736 3.50243 21.3229 2.10083 21.3229 0.601363C21.3229 0.402487 21.3134 0.202033 21.2929 0C20.5321 0.0394595 19.724 0.269903 18.8685 0.686596C18.0114 1.1096 17.3043 1.64152 16.7487 2.27918C15.6328 3.54031 15.0078 5.08081 15.0078 6.52187C15.0078 6.72075 15.0188 6.91016 15.0409 7.09009C16.7692 7.23057 18.3634 6.33878 19.6829 4.79828ZM25.4907 26.2787C26.1126 25.3917 26.6493 24.4273 27.1022 23.3792C27.2885 22.9341 27.4653 22.4717 27.6326 21.9871C26.8655 21.6651 26.1757 21.2121 25.557 20.625C24.1933 19.3607 23.4972 17.7681 23.4783 15.8535C23.4562 13.396 24.5721 11.4814 26.8292 10.1129C25.5681 8.3199 23.6724 7.32552 21.147 7.12191C20.2158 7.04299 19.0793 7.24345 17.733 7.72801C16.3061 8.25045 15.468 8.51404 15.2186 8.51404C14.8887 8.51404 14.1311 8.28991 12.9521 7.84797C11.773 7.40602 10.8212 7.18189 10.0952 7.18189C8.77093 7.20399 7.53979 7.54965 6.40177 8.22678C5.26534 8.90232 4.35619 9.82252 3.67117 10.9905C2.80149 12.4426 2.36743 14.1773 2.36743 16.1866C2.36743 17.9417 2.68942 19.7537 3.33182 21.6272C3.93161 23.3587 4.69712 24.8819 5.62837 26.1903C6.49806 27.4183 7.22253 28.2864 7.8018 28.7915C8.70937 29.6359 9.62009 30.0369 10.5308 29.9974C11.1322 29.9785 11.9182 29.7717 12.8905 29.3771C13.8644 28.9841 14.7735 28.7915 15.6211 28.7915C16.4308 28.7915 17.3147 28.9841 18.2775 29.3771C19.2372 29.7717 20.0611 29.9658 20.7429 29.9658C21.6947 29.9437 22.5849 29.5523 23.4136 28.7915C23.9471 28.3259 24.6431 27.4893 25.4907 26.2787Z" fill="white"/>
</g>
<defs>
<filter id="filter0_f_16_53" x="-1291.02" y="-790.017" width="1954.58" height="1358.47" filterUnits="userSpaceOnUse" color-interpolation-filters="sRGB">
<feFlood flood-opacity="0" result="BackgroundImageFix"/>
<feBlend mode="normal" in="SourceGraphic" in2="BackgroundImageFix" result="shape"/>
<feGaussianBlur stdDeviation="148.009" result="effect1_foregroundBlur_16_53"/>
</filter>
<filter id="filter1_f_16_53" x="-509.017" y="-542.017" width="1343.06" height="1014.49" filterUnits="userSpaceOnUse" color-interpolation-filters="sRGB">
<feFlood flood-opacity="0" result="BackgroundImageFix"/>
<feBlend mode="normal" in="SourceGraphic" in2="BackgroundImageFix" result="shape"/>
<feGaussianBlur stdDeviation="148.009" result="effect1_foregroundBlur_16_53"/>
</filter>
<linearGradient id="paint0_linear_16_53" x1="-3.5" y1="-18.5" x2="24.6197" y2="50.2465" gradientUnits="userSpaceOnUse">
<stop stop-color="#D555C7"/>
<stop offset="1" stop-color="#F396EA"/>
</linearGradient>
<clipPath id="clip0_16_53">
<rect width="1440" height="9596" fill="white" transform="translate(-242 -775)"/>
</clipPath>
</defs>
</svg>
