<svg width="30" height="30" viewBox="0 0 30 30" fill="none" xmlns="http://www.w3.org/2000/svg">
<g id="Icon">
<path id="Vector" d="M24.4659 17.0869C19.8707 17.2661 15.52 18.461 11.6437 20.4413L6.65915 23.3195C5.34092 24.0796 3.65744 23.6234 2.90092 22.312L0.367717 17.9256C-0.39043 16.6119 0.0614578 14.9256 1.37525 14.1674L5.50493 11.7828C5.74406 11.6447 6.04988 11.7266 6.18801 11.9658L9.43298 17.5863C9.57349 17.8296 9.88762 17.9103 10.1288 17.7617C10.3619 17.6179 10.4256 17.3056 10.2886 17.0683L7.02022 11.4072C6.89041 11.1823 6.95416 10.8952 7.1676 10.7473C10.5769 8.38361 13.4612 5.37309 15.6763 1.86205C16.5154 0.530821 18.4708 0.566447 19.2595 1.93205L26.1966 13.9486C26.985 15.3113 26.0411 17.0256 24.4659 17.0869ZM25.3561 8.71775C25.6129 7.24783 24.7514 5.77354 23.3589 5.2689C22.9212 5.11027 22.5241 5.58659 22.7568 5.98979C23.3108 6.94963 23.8668 7.91279 24.429 8.88619C24.6639 9.29276 25.2753 9.18032 25.3561 8.71775ZM13.8137 26.4103L11.4409 22.2912C11.303 22.0518 10.9968 21.9698 10.7575 22.1078C9.47155 22.8498 9.42292 22.8786 7.70756 23.8687C7.46836 24.0068 7.38611 24.3128 7.52424 24.552L9.90112 28.6685C10.2058 29.1956 10.7538 29.4822 11.3118 29.4822C11.8531 29.4822 12.0601 29.2991 13.2187 28.6303C13.995 28.1822 14.2619 27.1859 13.8137 26.4103ZM29.0069 4.91589C29.2461 4.77782 29.3281 4.472 29.1899 4.23287C29.0519 3.9938 28.7462 3.91173 28.5069 4.04986L27.2132 4.79682C26.7704 5.05245 26.9556 5.72997 27.4637 5.72997C27.6415 5.72991 27.6059 5.72478 29.0069 4.91589ZM24.4092 2.32487L24.7247 1.14759C24.7962 0.880831 24.6379 0.606698 24.3712 0.535196C24.1042 0.463819 23.8302 0.622011 23.7587 0.888769L23.4432 2.06605C23.3583 2.38306 23.5971 2.69563 23.9265 2.69563C24.1472 2.69557 24.3493 2.54825 24.4092 2.32487ZM29.9828 10.2549C30.0543 9.98816 29.896 9.71396 29.6293 9.64252L28.4519 9.32708C28.1852 9.25576 27.911 9.41395 27.8395 9.68065C27.768 9.94734 27.9264 10.2215 28.1931 10.293C29.4807 10.6381 29.41 10.6257 29.5001 10.6257C29.7209 10.6257 29.923 10.4783 29.9828 10.2549Z" fill="white"/>
</g>
</svg>
