<svg width="150" height="30" viewBox="0 0 150 30" fill="none" xmlns="http://www.w3.org/2000/svg">
<path d="M42.9274 16.2567C43.6909 15.5768 44.2067 14.5672 44.4956 13.2073C44.5782 12.7334 44.64 12.2183 44.64 11.6826C44.64 11.0851 44.5162 10.4463 44.2686 9.80758C43.9591 9.00401 43.5464 8.57132 43.0512 8.4683C42.3084 8.32407 41.5862 8.73616 40.9053 9.74577C40.3481 10.5287 39.9973 11.3529 39.8116 12.1977C39.7085 12.6716 39.6672 13.1867 39.6672 13.7018C39.6672 14.2993 39.791 14.9381 40.0386 15.5768C40.3481 16.3804 40.7608 16.8131 41.256 16.9161C41.7719 17.0191 42.329 16.7925 42.9274 16.2567Z" fill="#C4C4C4"/>
<path d="M31.5583 13.2073C31.2694 14.5672 30.7536 15.5768 29.9901 16.2567C29.3917 16.7925 28.8346 17.0191 28.3187 16.9161C27.8235 16.8131 27.4108 16.3804 27.1013 15.5768C26.8537 14.9381 26.7299 14.2993 26.7299 13.7018C26.7299 13.1867 26.7712 12.6716 26.8743 12.1977C27.0601 11.3529 27.4108 10.5287 27.968 9.74577C28.6489 8.73616 29.3711 8.32407 30.1139 8.4683C30.6091 8.57132 31.0218 9.00401 31.3313 9.80758C31.579 10.4463 31.7028 11.0851 31.7028 11.6826C31.7028 12.2183 31.6615 12.7334 31.5583 13.2073Z" fill="#C4C4C4"/>
<path fill-rule="evenodd" clip-rule="evenodd" d="M4.89885 0H45.9816C48.5815 0 50.6862 2.10164 50.6862 4.69778V20.3571C50.6862 22.9532 48.5815 25.0549 45.9816 25.0549H31.2488L33.2709 29.9999L24.3776 25.0549H4.91948C2.31957 25.0549 0.214872 22.9532 0.214872 20.3571V4.69778C0.194238 2.12224 2.29893 0 4.89885 0ZM2.73228 4.26499C3.02116 3.87351 3.45448 3.66746 4.03224 3.62625C5.08458 3.54383 5.68297 4.03834 5.82741 5.10977C6.46708 9.41607 7.16864 13.063 7.91147 16.0507L12.4304 7.45866C12.8431 6.67569 13.3589 6.26361 13.9779 6.2224C14.8858 6.16059 15.443 6.7375 15.6699 7.95316C16.1858 10.6935 16.8461 13.0218 17.6302 14.9998C18.1667 9.76634 19.0746 5.99575 20.3539 3.66746C20.6634 3.09054 21.1174 2.80208 21.7158 2.76087C22.1904 2.71967 22.6237 2.8639 23.0157 3.17296C23.4078 3.48203 23.6141 3.8735 23.6554 4.3474C23.676 4.71828 23.6141 5.02735 23.4491 5.33641C22.6443 6.81993 21.984 9.31305 21.4475 12.7746C20.9317 16.1331 20.746 18.7498 20.8698 20.6248C20.911 21.1399 20.8285 21.5932 20.6222 21.9847C20.3746 22.438 20.0031 22.6853 19.5286 22.7265C18.9921 22.7677 18.4349 22.5204 17.8984 21.9641C15.9795 20.0067 14.4525 17.0809 13.3383 13.1867C11.9971 15.824 11.0066 17.802 10.3669 19.1207C9.14953 21.449 8.11782 22.644 7.25118 22.7059C6.69406 22.7471 6.21947 22.2732 5.80678 21.2842C4.75444 18.585 3.61955 13.3721 2.40213 5.64548C2.34023 5.10977 2.4434 4.63587 2.73228 4.26499ZM47.0955 7.4999C46.3527 6.20183 45.2591 5.41886 43.794 5.1098C43.402 5.02738 43.0306 4.98617 42.6798 4.98617C40.6989 4.98617 39.0894 6.01639 37.8307 8.07682C36.7578 9.82819 36.2213 11.765 36.2213 13.8872C36.2213 15.4738 36.5514 16.8337 37.2117 17.9669C37.9546 19.265 39.0482 20.0479 40.5132 20.357C40.9053 20.4394 41.2767 20.4806 41.6274 20.4806C43.629 20.4806 45.2384 19.4504 46.4765 17.39C47.5495 15.618 48.086 13.6812 48.086 11.559C48.086 9.95181 47.7558 8.61253 47.0955 7.4999ZM30.8568 5.1098C32.3012 5.41886 33.4154 6.20183 34.1582 7.4999C34.8185 8.61253 35.1487 9.95181 35.1487 11.559C35.1487 13.6812 34.6122 15.618 33.5392 17.39C32.3012 19.4504 30.6917 20.4806 28.6902 20.4806C28.3394 20.4806 27.968 20.4394 27.5759 20.357C26.1109 20.0479 25.0173 19.265 24.2744 17.9669C23.6141 16.8337 23.284 15.4738 23.284 13.8872C23.284 11.765 23.8205 9.82819 24.8935 8.07682C26.1522 6.01639 27.7616 4.98617 29.7425 4.98617C30.0933 4.98617 30.4647 5.02738 30.8568 5.1098Z" fill="#C4C4C4"/>
<path d="M53.8433 12.507C53.8433 10.4054 54.5242 8.67462 55.9067 7.31474C57.2892 5.95485 59.0225 5.2749 61.1272 5.29551C61.9319 5.29551 62.6954 5.37793 63.3763 5.56337V8.90127C62.6335 8.69522 61.9525 8.5922 61.3129 8.5922C60.3224 8.5922 59.5177 8.96308 58.8574 9.72544C58.2177 10.4672 57.8876 11.4356 57.8876 12.61C57.8876 13.8669 58.2177 14.8559 58.878 15.5977C59.5383 16.3188 60.405 16.6897 61.4986 16.6897C62.0351 16.6897 62.6541 16.5867 63.3763 16.3806V19.7185C62.5922 19.9452 61.87 20.0482 61.2303 20.0482C59.0225 20.0482 57.2479 19.3477 55.8861 17.9672C54.5242 16.5867 53.8433 14.7529 53.8433 12.507Z" fill="#C4C4C4"/>
<path fill-rule="evenodd" clip-rule="evenodd" d="M65.7699 7.1705C66.8428 5.91364 68.3285 5.2749 70.2268 5.2749C72.249 5.2749 73.7966 5.91364 74.8902 7.1705C75.9632 8.44797 76.4997 10.2612 76.4997 12.61C76.4997 14.9589 75.9632 16.7927 74.9108 18.0908C73.8585 19.3889 72.3522 20.0482 70.3919 20.0482C68.3698 20.0482 66.8222 19.3889 65.7699 18.0908C64.7175 16.7927 64.181 14.9177 64.181 12.4658C64.181 10.1993 64.6969 8.42737 65.7699 7.1705ZM70.2268 16.8545C70.9284 16.8545 71.4855 16.5661 71.857 15.9892C72.2284 15.4122 72.4347 14.2584 72.4553 12.5688C72.4553 9.82846 71.7125 8.46857 70.2681 8.46857C68.8856 8.46857 68.2047 9.80786 68.2047 12.507C68.2047 14.2584 68.3698 15.4122 68.7206 15.9892C69.0713 16.5661 69.5665 16.8545 70.2268 16.8545Z" fill="#C4C4C4"/>
<path d="M85.9501 8.81885L86.693 5.66639H91.6039L93.5023 19.6979H89.7468L88.7358 10.0551L86.3835 19.6979H83.8248L81.3693 10.0345L80.3995 19.6979H76.8092L78.6044 5.66639H83.3915C84.0724 8.69523 84.6089 11.2914 85.001 13.4754L85.4137 11.2914C85.5787 10.4466 85.7644 9.62242 85.9501 8.81885Z" fill="#C4C4C4"/>
<path d="M103.138 8.81885L103.881 5.66639H108.772L110.67 19.6979H106.915L105.903 10.0551L103.572 19.6979H101.013L98.5577 10.0345L97.5879 19.6979H93.9975L95.7927 5.66639H100.58C101.261 8.69523 101.797 11.2914 102.189 13.4754L102.602 11.2914C102.767 10.4466 102.953 9.62242 103.138 8.81885Z" fill="#C4C4C4"/>
<path d="M118.924 14.1554H115.56V16.7309H119.46V19.7185H111.764V5.68699H119.44V8.67462H115.56V11.2502H118.924V14.1554Z" fill="#C4C4C4"/>
<path fill-rule="evenodd" clip-rule="evenodd" d="M130.747 9.95209C130.747 10.632 130.541 11.2914 130.149 11.9301C129.757 12.5688 129.179 13.0427 128.457 13.3724L131.49 19.6979H127.487L124.412 13.3106H124.35V19.6979H120.554V5.66639H124.969C126.744 5.66639 128.168 6.05787 129.2 6.82023C130.231 7.58259 130.747 8.63341 130.747 9.95209ZM124.33 8.36555V11.7035C126.001 11.6829 126.847 11.1883 126.847 10.2199C126.847 9.5606 126.661 9.10731 126.269 8.81885C125.877 8.53039 125.238 8.38616 124.33 8.36555Z" fill="#C4C4C4"/>
<path d="M130.912 12.507C130.912 10.4054 131.593 8.67462 132.976 7.31474C134.358 5.95485 136.112 5.2749 138.196 5.29551C139.001 5.29551 139.764 5.37793 140.445 5.56337V8.90127C139.702 8.69522 139.021 8.5922 138.382 8.5922C137.391 8.5922 136.587 8.96308 135.926 9.72544C135.287 10.4672 134.956 11.4356 134.956 12.61C134.956 13.8669 135.287 14.8559 135.947 15.5977C136.607 16.3188 137.474 16.6897 138.567 16.6897C139.104 16.6897 139.723 16.5867 140.445 16.3806V19.7185C139.661 19.9452 138.939 20.0482 138.299 20.0482C136.091 20.0482 134.317 19.3477 132.955 17.9672C131.593 16.5867 130.912 14.7529 130.912 12.507Z" fill="#C4C4C4"/>
<path d="M145.294 14.1348V16.7103H149.215V19.6979H141.518V5.66639H149.194V8.65402H145.294V11.2296H148.658V14.1348H145.294Z" fill="#C4C4C4"/>
</svg>
